<svg width="42" height="42" viewBox="0 0 42 42" fill="none" xmlns="http://www.w3.org/2000/svg">
<path d="M25.2 16.8C26.8709 16.8 28.4733 17.4638 29.6548 18.6453C30.8362 19.8268 31.5 21.4292 31.5 23.1V30.45H27.3V23.1C27.3 22.5431 27.0787 22.009 26.6849 21.6151C26.2911 21.2213 25.7569 21 25.2 21C24.643 21 24.1089 21.2213 23.7151 21.6151C23.3212 22.009 23.1 22.5431 23.1 23.1V30.45H18.9V23.1C18.9 21.4292 19.5637 19.8268 20.7452 18.6453C21.9267 17.4638 23.5291 16.8 25.2 16.8V16.8Z" stroke="white" stroke-width="1.5" stroke-linecap="round" stroke-linejoin="round"/>
<path d="M14.7 17.85H10.5V30.45H14.7V17.85Z" stroke="white" stroke-width="1.5" stroke-linecap="round" stroke-linejoin="round"/>
<path d="M12.6 14.7C13.7598 14.7 14.7 13.7598 14.7 12.6C14.7 11.4402 13.7598 10.5 12.6 10.5C11.4402 10.5 10.5 11.4402 10.5 12.6C10.5 13.7598 11.4402 14.7 12.6 14.7Z" stroke="white" stroke-width="1.5" stroke-linecap="round" stroke-linejoin="round"/>
</svg>
