<?xml version="1.0" encoding="utf-8"?>
<!-- Generator: Adobe Illustrator 24.0.2, SVG Export Plug-In . SVG Version: 6.00 Build 0)  -->
<svg version="1.1" id="Livello_1" xmlns="http://www.w3.org/2000/svg" xmlns:xlink="http://www.w3.org/1999/xlink" x="0px" y="0px"
	 viewBox="0 0 38 36.3" style="enable-background:new 0 0 38 36.3;" xml:space="preserve">
<style type="text/css">
	.st0{fill:#FFFFFF;}
</style>
<path class="st0" d="M3.8,0C1.7,0,0,1.7,0,3.8v19.1c0,1,0.4,2,1.1,2.7s1.7,1.1,2.7,1.1H19v9.5l5.7-5.7l5.7,5.7v-9.5h3.8
	c1,0,2-0.4,2.7-1.1c0.7-0.7,1.1-1.7,1.1-2.7V9.6V5.7V3.8c0-1-0.4-2-1.1-2.7S35.2,0,34.2,0h-7.6H3.8z M19,3.8l5.7,3.8l5.7-3.8v6.7
	l5.7,2.9l-5.7,2.9v6.7l-5.7-3.8L19,22.9v-6.7l-5.7-2.9l5.7-2.9V3.8z M3.8,3.8h9.5v3.8H3.8V3.8z M3.8,11.5h5.7v3.8H3.8
	C3.8,15.3,3.8,11.5,3.8,11.5z M3.8,19.1h9.5v3.8H3.8V19.1z"/>
<path class="st0" d="M3.8,0C1.7,0,0,1.7,0,3.8v19.1c0,1,0.4,2,1.1,2.7s1.7,1.1,2.7,1.1H19v9.5l5.7-5.7l5.7,5.7v-9.5h3.8
	c1,0,2-0.4,2.7-1.1c0.7-0.7,1.1-1.7,1.1-2.7V9.6V5.7V3.8c0-1-0.4-2-1.1-2.7S35.2,0,34.2,0h-7.6H3.8z M19,3.8l5.7,3.8l5.7-3.8v6.7
	l5.7,2.9l-5.7,2.9v6.7l-5.7-3.8L19,22.9v-6.7l-5.7-2.9l5.7-2.9V3.8z M3.8,3.8h9.5v3.8H3.8V3.8z M3.8,11.5h5.7v3.8H3.8
	C3.8,15.3,3.8,11.5,3.8,11.5z M3.8,19.1h9.5v3.8H3.8V19.1z"/>
</svg>
