<?xml version="1.0" encoding="utf-8"?>
<!-- Generator: Adobe Illustrator 24.0.2, SVG Export Plug-In . SVG Version: 6.00 Build 0)  -->
<svg version="1.1" id="Livello_1" xmlns="http://www.w3.org/2000/svg" xmlns:xlink="http://www.w3.org/1999/xlink" x="0px" y="0px"
	 viewBox="0 0 38 38" style="enable-background:new 0 0 38 38;" xml:space="preserve">
<style type="text/css">
	.st0{fill:#FFFFFF;}
</style>
<path class="st0" d="M32.8,17.3H38v3.5h-5.2V17.3z M0,17.3h5.2v3.5H0V17.3z M20.7,0v5.2h-3.5V0H20.7z M6.8,4.3L10.4,8L8,10.4
	L4.3,6.8L6.8,4.3z M27.5,8l3.7-3.7l2.5,2.5L30,10.4L27.5,8z M19,8.6c2.7,0,5.4,1.1,7.3,3c1.9,1.9,3,4.6,3,7.3c0,3.8-2.1,7.2-5.2,9
	v3.1c0,0.5-0.2,0.9-0.5,1.2c-0.3,0.3-0.8,0.5-1.2,0.5h-6.9c-0.5,0-0.9-0.2-1.2-0.5c-0.3-0.3-0.5-0.8-0.5-1.2V28
	c-3.1-1.8-5.2-5.1-5.2-9c0-2.7,1.1-5.4,3-7.3C13.6,9.7,16.3,8.6,19,8.6L19,8.6z M22.5,34.5v1.7c0,0.5-0.2,0.9-0.5,1.2
	c-0.3,0.3-0.8,0.5-1.2,0.5h-3.5c-0.5,0-0.9-0.2-1.2-0.5c-0.3-0.3-0.5-0.8-0.5-1.2v-1.7H22.5z M17.3,29.4h3.5v-3.7
	c3-0.8,5.2-3.5,5.2-6.7c0-1.8-0.7-3.6-2-4.9s-3.1-2-4.9-2s-3.6,0.7-4.9,2s-2,3.1-2,4.9c0,3.2,2.2,5.9,5.2,6.7V29.4z"/>
</svg>
