<svg width="42" height="42" viewBox="0 0 42 42" fill="none" xmlns="http://www.w3.org/2000/svg">
<path d="M32.55 11.5606C31.5445 12.2699 30.4312 12.8123 29.253 13.1671C28.6206 12.44 27.7802 11.9246 26.8454 11.6907C25.9106 11.4568 24.9265 11.5157 24.0262 11.8593C23.1259 12.2029 22.3529 12.8147 21.8116 13.612C21.2704 14.4093 20.9871 15.3536 21 16.3171V17.3671C19.1548 17.415 17.3263 17.0057 15.6776 16.1758C14.0288 15.3459 12.6108 14.1212 11.55 12.6106C11.55 12.6106 7.35001 22.0606 16.8 26.2606C14.6376 27.7285 12.0615 28.4645 9.45001 28.3606C18.9 33.6106 30.45 28.3606 30.45 16.2856C30.449 15.9931 30.4209 15.7014 30.366 15.4141C31.4376 14.3573 32.1939 13.023 32.55 11.5606V11.5606Z" stroke="white" stroke-width="1.5" stroke-linecap="round" stroke-linejoin="round"/>
</svg>
