<?xml version="1.0" encoding="utf-8"?>
<!-- Generator: Adobe Illustrator 24.0.2, SVG Export Plug-In . SVG Version: 6.00 Build 0)  -->
<svg version="1.1" id="Livello_1" xmlns="http://www.w3.org/2000/svg" xmlns:xlink="http://www.w3.org/1999/xlink" x="0px" y="0px"
	 viewBox="0 0 38 38" style="enable-background:new 0 0 38 38;" xml:space="preserve">
<style type="text/css">
	.st0{fill:#FFFFFF;}
</style>
<path class="st0" d="M38,15H23.7l5.8-6C23.7,3.4,14.4,3.2,8.6,8.9c-5.8,5.7-5.8,14.9,0,20.7c5.8,5.7,15.1,5.7,20.9,0
	c2.9-2.8,4.3-6.2,4.3-10.3H38c0,4.2-1.9,9.6-5.6,13.3c-7.4,7.3-19.4,7.3-26.9,0c-7.4-7.3-7.5-19.2,0-26.6c7.4-7.3,19.3-7.3,26.7,0
	L38,0V15z M20.1,10.6v9l7.4,4.4l-1.5,2.6l-9-5.4V10.6H20.1z"/>
</svg>
