<svg width="198" height="67" viewBox="0 0 198 67" fill="none" xmlns="http://www.w3.org/2000/svg">
<path d="M153.415 37.8268C151.055 40.6968 148.685 43.5468 146.355 46.4368C145.875 47.0268 145.395 47.2468 144.635 47.2368C142.355 47.1868 140.085 47.1968 137.805 47.2268C137.145 47.2368 136.845 47.1168 136.735 46.3568C136.305 43.3168 135.765 40.2968 135.265 37.2668C134.825 37.3268 134.885 37.7268 134.795 38.0068C133.875 40.7668 132.945 43.5168 132.065 46.2868C131.855 46.9568 131.615 47.2568 130.845 47.2368C128.415 47.1768 125.975 47.1868 123.535 47.2268C122.745 47.2368 122.475 47.1168 122.765 46.2468C125.615 37.5868 128.435 28.9168 131.235 20.2368C131.435 19.6068 131.725 19.3768 132.405 19.3868C134.605 19.4368 136.795 19.4468 138.995 19.3868C139.775 19.3668 140.005 19.6468 140.145 20.3568C141.315 26.4668 142.525 32.5668 143.725 38.6668C143.745 38.7668 143.795 38.8668 143.895 39.1468C145.415 37.3668 146.855 35.6868 148.285 33.9968C152.185 29.4068 156.105 24.8168 159.975 20.2068C160.495 19.5868 161.015 19.3668 161.805 19.3868C163.925 19.4368 166.035 19.4268 168.155 19.3868C168.915 19.3768 169.015 19.5868 168.785 20.2768C165.875 29.0068 162.975 37.7368 160.105 46.4768C159.915 47.0468 159.655 47.2168 159.095 47.2068C156.655 47.1868 154.225 47.1668 151.785 47.2168C150.935 47.2368 150.775 47.0368 151.055 46.2168C151.965 43.5468 152.805 40.8368 153.675 38.1468C153.795 37.9068 154.025 37.6368 153.765 37.4268C153.645 37.3468 153.495 37.6568 153.415 37.8268Z" fill="#02467C"/>
<path d="M59.8651 47.2168C60.9551 43.8968 61.9951 40.6968 63.0451 37.4968C64.3851 33.4068 65.7351 29.3268 67.0651 25.2268C68.1951 21.7468 70.7051 19.7068 74.5651 19.6468C81.2351 19.5368 87.9051 19.6068 94.5751 19.6168C95.2951 19.6168 95.9951 19.8068 96.6751 20.0568C98.4651 20.7168 99.2351 21.9568 98.7751 23.7968C98.3251 25.6068 97.7051 27.3768 97.1251 29.1568C95.2651 34.8368 93.3651 40.4968 91.5251 46.1768C91.2851 46.9168 91.0151 47.2668 90.1551 47.2368C87.6851 47.1668 85.2051 47.1868 82.7251 47.2268C81.9551 47.2368 81.8851 47.0168 82.1151 46.3468C83.1951 43.1368 84.2151 39.9068 85.3051 36.7068C85.5651 35.9568 85.3751 35.8468 84.6751 35.8568C81.0751 35.8768 77.4851 35.8968 73.8851 35.8468C73.1251 35.8368 72.8551 36.1268 72.6451 36.7868C71.6451 39.9368 70.5651 43.0668 69.5751 46.2268C69.3251 47.0268 68.9551 47.2468 68.1351 47.2368C65.4251 47.1768 62.7151 47.2168 59.8651 47.2168ZM82.4951 26.1168C81.1851 26.1168 79.8651 26.1168 78.5551 26.1168C76.1051 26.1168 76.1451 26.1268 75.3951 28.4668C75.1651 29.1868 75.2751 29.3368 76.0151 29.3368C79.1651 29.3068 82.3051 29.3268 85.4551 29.3268C87.7851 29.3268 87.7851 29.3268 88.4551 27.0968C88.4751 27.0168 88.5151 26.9468 88.5451 26.8768C88.7751 26.3268 88.6351 26.1068 87.9951 26.1168C86.1551 26.1468 84.3251 26.1168 82.4951 26.1168Z" fill="#02467C"/>
<path d="M92.3751 63.8568C78.7251 65.5368 65.0951 66.7068 51.3851 66.5768C43.7951 66.5068 36.2351 66.1068 28.8351 64.1768C26.3151 63.5168 23.8851 62.6268 21.7151 61.1568C18.0051 58.6368 16.9251 55.2368 18.5251 51.0568C19.8651 47.5468 22.2051 44.7268 24.7251 42.0468C27.4051 39.1868 30.3351 36.5968 33.3951 34.1468C33.5951 33.9868 33.7751 33.7568 34.2851 33.8068C33.5951 34.6368 32.9951 35.3468 32.4051 36.0768C31.3551 37.3868 30.4551 38.7968 29.8151 40.3568C28.1251 44.4768 28.9851 48.3068 32.2951 51.3168C35.9051 54.5968 40.3251 56.2968 44.8851 57.7068C51.6851 59.8168 58.6951 60.9368 65.7551 61.7768C74.3551 62.7968 82.9951 63.3468 91.6551 63.5668C91.8851 63.5768 92.1351 63.5668 92.3751 63.8568Z" fill="#02A4E3"/>
<path d="M72.895 56.8668C70.565 56.6768 68.235 56.5068 65.905 56.2868C59.155 55.6268 52.435 54.7268 45.935 52.6968C43.225 51.8468 40.605 50.7968 38.305 49.0768C34.665 46.3568 33.875 42.9168 36.045 38.8868C38.015 35.2268 41.055 32.4968 44.235 29.9368C51.295 24.2668 59.125 19.8068 67.105 15.5968C77.925 9.89677 89.065 4.85677 100.385 0.216775C100.625 0.116775 100.855 -0.113227 101.335 0.0667733C100.875 0.306773 100.535 0.496772 100.175 0.666772C90.095 5.66677 80.185 10.9468 70.865 17.2768C65.145 21.1668 59.645 25.3368 55.225 30.7468C53.705 32.6068 52.405 34.6168 51.585 36.8868C50.085 41.0368 50.845 44.7368 53.925 47.9168C57.035 51.1268 60.985 52.8968 65.105 54.3768C67.645 55.2868 70.275 55.9368 72.905 56.5368C72.895 56.6568 72.895 56.7568 72.895 56.8668Z" fill="#02467C"/>
<path d="M197.255 19.5668C196.515 21.7968 195.805 23.8568 195.155 25.9468C194.945 26.6068 194.505 26.5168 194.035 26.5168C189.525 26.5168 185.005 26.5368 180.495 26.4968C179.595 26.4868 179.085 26.6668 178.945 27.6368C178.825 28.4568 177.965 29.4368 178.375 29.9568C178.835 30.5368 180.005 30.1368 180.865 30.1468C183.345 30.1768 185.815 30.1768 188.295 30.1468C189.025 30.1368 189.185 30.3068 188.925 31.0268C188.355 32.5968 187.855 34.1968 187.375 35.7968C187.185 36.4268 186.825 36.5368 186.235 36.5368C183.195 36.5068 180.165 36.5468 177.125 36.5068C176.335 36.4968 175.835 36.6468 175.685 37.4968C175.525 38.3868 174.635 39.4568 175.065 40.0468C175.485 40.6168 176.765 40.2167 177.675 40.2167C181.865 40.2367 186.065 40.2268 190.425 40.2268C189.685 42.5168 188.985 44.7068 188.265 46.8868C188.135 47.2868 187.765 47.2268 187.455 47.2268C179.585 47.2268 171.715 47.2168 163.845 47.2368C162.835 47.2368 163.235 46.7268 163.385 46.2568C165.805 38.8768 168.235 31.4968 170.665 24.1268C171.015 23.0668 171.445 22.0268 171.705 20.9468C171.955 19.8968 172.415 19.5268 173.565 19.5368C180.955 19.6068 188.345 19.5768 195.735 19.5768C196.175 19.5668 196.615 19.5668 197.255 19.5668Z" fill="#02467C"/>
<path d="M128.375 19.4068C127.625 21.7068 126.905 23.8068 126.255 25.9368C126.025 26.6768 125.505 26.5168 125.015 26.5168C120.705 26.5268 116.395 26.5168 112.075 26.5168C109.795 26.5168 109.375 26.8368 108.655 29.0268C107.645 32.0968 106.625 35.1568 105.625 38.2168C105.155 39.6468 105.525 40.1768 107.115 40.1968C110.025 40.2368 112.945 40.2068 115.855 40.2068C117.495 40.2068 119.125 40.2268 120.765 40.1968C121.375 40.1868 121.515 40.3168 121.295 40.9368C120.645 42.7768 120.055 44.6368 119.475 46.4968C119.305 47.0468 119.015 47.2068 118.445 47.2068C112.215 47.1868 105.985 47.1968 99.7551 47.1868C99.5551 47.1868 99.3551 47.1668 99.1551 47.1568C95.9151 46.8668 93.7251 45.5868 95.2251 41.3468C97.1051 36.0168 98.8551 30.6368 100.525 25.2368C101.625 21.6768 104.075 19.9768 107.595 19.5868C111.415 19.1668 115.255 19.4368 119.085 19.3868C122.135 19.3768 125.175 19.4068 128.375 19.4068Z" fill="#02467C"/>
<path d="M14.9051 60.7068C10.5451 59.6268 6.45506 58.5668 2.99506 55.9668C-0.164944 53.5968 -0.834943 50.5068 1.03506 47.0068C2.66506 43.9468 5.16505 41.6468 7.80505 39.5068C14.2251 34.3168 21.3951 30.3068 28.6951 26.5268C38.6351 21.3668 48.8851 16.8868 59.2851 12.7268C59.6351 12.5868 59.9751 12.2768 60.4651 12.4868C60.1851 12.8568 59.7751 12.9768 59.4151 13.1668C48.4851 19.0368 37.7351 25.2268 27.9151 32.8668C23.5551 36.2568 19.4451 39.9068 16.0751 44.3268C14.7651 46.0468 13.6251 47.8768 12.8451 49.8968C11.1751 54.1968 11.6751 57.0368 14.9051 60.7068Z" fill="#02467C"/>
</svg>
