<?xml version="1.0" encoding="UTF-8" standalone="no"?>
<svg
   xmlns:dc="http://purl.org/dc/elements/1.1/"
   xmlns:cc="http://creativecommons.org/ns#"
   xmlns:rdf="http://www.w3.org/1999/02/22-rdf-syntax-ns#"
   xmlns:svg="http://www.w3.org/2000/svg"
   xmlns="http://www.w3.org/2000/svg"
   xmlns:sodipodi="http://sodipodi.sourceforge.net/DTD/sodipodi-0.dtd"
   xmlns:inkscape="http://www.inkscape.org/namespaces/inkscape"
   inkscape:version="1.0 (4035a4fb49, 2020-05-01)"
   sodipodi:docname="privato.svg"
   id="svg4"
   version="1.1"
   fill="none"
   viewBox="0 0 23 23"
   height="23"
   width="23">
  <metadata
     id="metadata10">
    <rdf:RDF>
      <cc:Work
         rdf:about="">
        <dc:format>image/svg+xml</dc:format>
        <dc:type
           rdf:resource="http://purl.org/dc/dcmitype/StillImage" />
      </cc:Work>
    </rdf:RDF>
  </metadata>
  <defs
     id="defs8" />
  <sodipodi:namedview
     inkscape:current-layer="svg4"
     inkscape:window-maximized="1"
     inkscape:window-y="30"
     inkscape:window-x="0"
     inkscape:cy="11.5"
     inkscape:cx="11.562927"
     inkscape:zoom="31.782609"
     showgrid="false"
     id="namedview6"
     inkscape:window-height="1050"
     inkscape:window-width="1920"
     inkscape:pageshadow="2"
     inkscape:pageopacity="0"
     guidetolerance="10"
     gridtolerance="10"
     objecttolerance="10"
     borderopacity="1"
     bordercolor="#666666"
     pagecolor="#ffffff" />
  <path
     style="fill:#ffffff"
     id="path2"
     fill="#686B6F"
     d="M11.1377 19.7208C8.3877 19.7208 5.9567 18.3128 4.5377 16.2008C4.5707 14.0008 8.9377 12.7908 11.1377 12.7908C13.3377 12.7908 17.7047 14.0008 17.7377 16.2008C16.3187 18.3128 13.8877 19.7208 11.1377 19.7208ZM11.1377 4.10078C12.0129 4.10078 12.8523 4.44846 13.4711 5.06733C14.09 5.6862 14.4377 6.52557 14.4377 7.40078C14.4377 8.276 14.09 9.11536 13.4711 9.73423C12.8523 10.3531 12.0129 10.7008 11.1377 10.7008C10.2625 10.7008 9.42311 10.3531 8.80424 9.73423C8.18537 9.11536 7.8377 8.276 7.8377 7.40078C7.8377 6.52557 8.18537 5.6862 8.80424 5.06733C9.42311 4.44846 10.2625 4.10078 11.1377 4.10078ZM11.1377 0.800781C9.69316 0.800781 8.26276 1.0853 6.92818 1.63811C5.5936 2.19091 4.38097 3.00116 3.35952 4.02261C1.29662 6.08551 0.137695 8.8834 0.137695 11.8008C0.137695 14.7182 1.29662 17.5161 3.35952 19.579C4.38097 20.6004 5.5936 21.4107 6.92818 21.9635C8.26276 22.5163 9.69316 22.8008 11.1377 22.8008C14.0551 22.8008 16.853 21.6419 18.9159 19.579C20.9788 17.5161 22.1377 14.7182 22.1377 11.8008C22.1377 5.71778 17.1877 0.800781 11.1377 0.800781Z" />
</svg>
