<svg width="1440" height="1060" viewBox="0 0 1440 1060" fill="none" xmlns="http://www.w3.org/2000/svg">
<path d="M-1 724.088C260.105 610.767 913.852 407.789 1440 502.441V1059.92H-1V724.088Z" fill="url(#paint0_linear)"/>
<g clip-path="url(#clip0)">
<path d="M1404.42 223.356C1408.09 223.806 1411.42 221.2 1411.87 217.534C1412.32 213.869 1409.72 210.533 1406.05 210.083C1402.39 209.633 1399.05 212.24 1398.6 215.905C1398.15 219.57 1400.76 222.906 1404.42 223.356Z" fill="#02467C"/>
<path d="M1429.26 203.95C1432.93 204.4 1436.26 201.793 1436.71 198.128C1437.16 194.463 1434.56 191.127 1430.89 190.677C1427.23 190.227 1423.89 192.833 1423.44 196.499C1422.99 200.164 1425.6 203.5 1429.26 203.95Z" fill="#02467C"/>
<path d="M1354.75 262.169C1358.41 262.619 1361.75 260.012 1362.2 256.347C1362.65 252.682 1360.04 249.345 1356.38 248.895C1352.71 248.445 1349.38 251.052 1348.93 254.717C1348.48 258.383 1351.08 261.719 1354.75 262.169Z" fill="#02467C"/>
<path d="M1379.59 242.762C1383.25 243.212 1386.59 240.606 1387.04 236.941C1387.49 233.275 1384.88 229.939 1381.22 229.489C1377.55 229.039 1374.21 231.646 1373.76 235.311C1373.31 238.976 1375.92 242.313 1379.59 242.762Z" fill="#02467C"/>
<path d="M1398.99 267.601C1402.66 268.05 1405.99 265.444 1406.44 261.779C1406.89 258.113 1404.29 254.777 1400.62 254.327C1396.96 253.877 1393.62 256.484 1393.17 260.149C1392.72 263.814 1395.33 267.151 1398.99 267.601Z" fill="#02467C"/>
<path d="M1423.83 248.194C1427.5 248.644 1430.83 246.038 1431.28 242.372C1431.73 238.707 1429.12 235.371 1425.46 234.921C1421.79 234.471 1418.46 237.078 1418.01 240.743C1417.56 244.408 1420.16 247.744 1423.83 248.194Z" fill="#02467C"/>
<path d="M1443.24 273.032C1446.9 273.482 1450.24 270.876 1450.69 267.21C1451.14 263.545 1448.53 260.209 1444.87 259.759C1441.2 259.309 1437.86 261.916 1437.41 265.581C1436.96 269.246 1439.57 272.582 1443.24 273.032Z" fill="#02467C"/>
<path d="M1305.07 300.981C1308.74 301.431 1312.07 298.825 1312.52 295.159C1312.97 291.494 1310.37 288.158 1306.7 287.708C1303.04 287.258 1299.7 289.864 1299.25 293.53C1298.8 297.195 1301.41 300.531 1305.07 300.981Z" fill="#02467C"/>
<path d="M1329.91 281.575C1333.57 282.025 1336.91 279.418 1337.36 275.753C1337.81 272.088 1335.2 268.752 1331.54 268.302C1327.87 267.852 1324.54 270.458 1324.09 274.123C1323.64 277.789 1326.24 281.125 1329.91 281.575Z" fill="#02467C"/>
<path d="M1349.32 306.413C1352.98 306.863 1356.32 304.256 1356.77 300.591C1357.22 296.926 1354.61 293.59 1350.95 293.14C1347.28 292.69 1343.94 295.296 1343.49 298.962C1343.04 302.627 1345.65 305.963 1349.32 306.413Z" fill="#02467C"/>
<path d="M1374.15 287.007C1377.82 287.457 1381.16 284.85 1381.61 281.185C1382.06 277.52 1379.45 274.183 1375.78 273.733C1372.12 273.283 1368.78 275.89 1368.33 279.555C1367.88 283.221 1370.49 286.557 1374.15 287.007Z" fill="#02467C"/>
<path d="M1393.56 311.845C1397.23 312.295 1400.56 309.688 1401.01 306.023C1401.46 302.358 1398.85 299.021 1395.19 298.571C1391.52 298.121 1388.19 300.728 1387.74 304.393C1387.29 308.059 1389.89 311.395 1393.56 311.845Z" fill="#02467C"/>
<path d="M1418.4 292.439C1422.06 292.889 1425.4 290.282 1425.85 286.617C1426.3 282.951 1423.69 279.615 1420.03 279.165C1416.36 278.715 1413.03 281.322 1412.58 284.987C1412.13 288.652 1414.73 291.989 1418.4 292.439Z" fill="#02467C"/>
<path d="M1437.8 317.277C1441.47 317.727 1444.81 315.12 1445.26 311.455C1445.71 307.789 1443.1 304.453 1439.43 304.003C1435.77 303.553 1432.43 306.16 1431.98 309.825C1431.53 313.491 1434.14 316.827 1437.8 317.277Z" fill="#02467C"/>
<path d="M1324.48 325.819C1328.14 326.269 1331.48 323.663 1331.93 319.997C1332.38 316.332 1329.77 312.996 1326.11 312.546C1322.44 312.096 1319.11 314.703 1318.66 318.368C1318.21 322.033 1320.81 325.369 1324.48 325.819Z" fill="#02467C"/>
<path d="M1343.88 350.657C1347.55 351.107 1350.89 348.501 1351.34 344.835C1351.79 341.17 1349.18 337.834 1345.51 337.384C1341.85 336.934 1338.51 339.541 1338.06 343.206C1337.61 346.871 1340.22 350.207 1343.88 350.657Z" fill="#02467C"/>
<path d="M1368.72 331.251C1372.39 331.701 1375.72 329.094 1376.17 325.429C1376.62 321.764 1374.02 318.428 1370.35 317.978C1366.69 317.528 1363.35 320.134 1362.9 323.8C1362.45 327.465 1365.06 330.801 1368.72 331.251Z" fill="#02467C"/>
<path d="M1388.13 356.089C1391.79 356.539 1395.13 353.932 1395.58 350.267C1396.03 346.602 1393.42 343.266 1389.76 342.816C1386.09 342.366 1382.76 344.972 1382.31 348.638C1381.86 352.303 1384.46 355.639 1388.13 356.089Z" fill="#02467C"/>
<path d="M1412.97 336.683C1416.63 337.133 1419.97 334.526 1420.42 330.861C1420.87 327.196 1418.26 323.859 1414.6 323.409C1410.93 322.96 1407.59 325.566 1407.14 329.231C1406.69 332.897 1409.3 336.233 1412.97 336.683Z" fill="#02467C"/>
<path d="M1432.37 361.521C1436.04 361.971 1439.37 359.364 1439.82 355.699C1440.27 352.034 1437.67 348.698 1434 348.248C1430.34 347.798 1427 350.404 1426.55 354.07C1426.1 357.735 1428.71 361.071 1432.37 361.521Z" fill="#02467C"/>
<path d="M1363.29 375.495C1366.96 375.945 1370.29 373.339 1370.74 369.673C1371.19 366.008 1368.58 362.672 1364.92 362.222C1361.25 361.772 1357.92 364.379 1357.47 368.044C1357.02 371.709 1359.62 375.045 1363.29 375.495Z" fill="#02467C"/>
<path d="M1382.7 400.333C1386.36 400.783 1389.7 398.177 1390.15 394.511C1390.6 390.846 1387.99 387.51 1384.33 387.06C1380.66 386.61 1377.32 389.217 1376.87 392.882C1376.42 396.547 1379.03 399.883 1382.7 400.333Z" fill="#02467C"/>
<path d="M1407.53 380.927C1411.2 381.377 1414.54 378.77 1414.99 375.105C1415.44 371.44 1412.83 368.104 1409.16 367.654C1405.5 367.204 1402.16 369.81 1401.71 373.476C1401.26 377.141 1403.87 380.477 1407.53 380.927Z" fill="#02467C"/>
<path d="M1426.94 405.765C1430.61 406.215 1433.94 403.609 1434.39 399.943C1434.84 396.278 1432.24 392.942 1428.57 392.492C1424.9 392.042 1421.57 394.648 1421.12 398.314C1420.67 401.979 1423.28 405.315 1426.94 405.765Z" fill="#02467C"/>
<path d="M1402.1 425.171C1405.77 425.621 1409.1 423.015 1409.55 419.35C1410 415.684 1407.4 412.348 1403.73 411.898C1400.07 411.448 1396.73 414.055 1396.28 417.72C1395.83 421.385 1398.44 424.721 1402.1 425.171Z" fill="#02467C"/>
<path d="M1421.51 450.009C1425.17 450.459 1428.51 447.853 1428.96 444.188C1429.41 440.522 1426.8 437.186 1423.14 436.736C1419.47 436.286 1416.14 438.893 1415.69 442.558C1415.24 446.223 1417.84 449.559 1421.51 450.009Z" fill="#02467C"/>
<path d="M1446.35 430.603C1450.01 431.053 1453.35 428.447 1453.8 424.781C1454.25 421.116 1451.64 417.78 1447.98 417.33C1444.31 416.88 1440.97 419.486 1440.52 423.152C1440.07 426.817 1442.68 430.153 1446.35 430.603Z" fill="#02467C"/>
<path d="M1239.1 472.527C1242.77 472.977 1246.1 470.37 1246.55 466.705C1247 463.039 1244.39 459.703 1240.73 459.253C1237.06 458.803 1233.73 461.41 1233.28 465.075C1232.83 468.74 1235.43 472.077 1239.1 472.527Z" fill="#02467C"/>
<path d="M1283.34 477.958C1287.01 478.408 1290.35 475.802 1290.8 472.136C1291.25 468.471 1288.64 465.135 1284.97 464.685C1281.31 464.235 1277.97 466.842 1277.52 470.507C1277.07 474.172 1279.68 477.508 1283.34 477.958Z" fill="#02467C"/>
<path d="M1327.59 483.39C1331.25 483.84 1334.59 481.234 1335.04 477.568C1335.49 473.903 1332.88 470.567 1329.22 470.117C1325.55 469.667 1322.22 472.273 1321.77 475.939C1321.32 479.604 1323.92 482.94 1327.59 483.39Z" fill="#02467C"/>
<path d="M1371.83 488.822C1375.5 489.272 1378.83 486.665 1379.28 483C1379.73 479.335 1377.13 475.999 1373.46 475.549C1369.8 475.099 1366.46 477.705 1366.01 481.371C1365.56 485.036 1368.17 488.372 1371.83 488.822Z" fill="#02467C"/>
<path d="M1416.08 494.254C1419.74 494.704 1423.08 492.097 1423.53 488.432C1423.98 484.767 1421.37 481.43 1417.71 480.98C1414.04 480.53 1410.71 483.137 1410.26 486.802C1409.81 490.468 1412.41 493.804 1416.08 494.254Z" fill="#02467C"/>
<path d="M1440.91 474.847C1444.58 475.297 1447.92 472.691 1448.37 469.026C1448.82 465.36 1446.21 462.024 1442.54 461.574C1438.88 461.124 1435.54 463.731 1435.09 467.396C1434.64 471.061 1437.25 474.397 1440.91 474.847Z" fill="#02467C"/>
<path d="M1214.26 491.933C1217.93 492.383 1221.26 489.776 1221.71 486.111C1222.16 482.446 1219.56 479.109 1215.89 478.659C1212.23 478.21 1208.89 480.816 1208.44 484.481C1207.99 488.147 1210.6 491.483 1214.26 491.933Z" fill="#02467C"/>
</g>
<defs>
<linearGradient id="paint0_linear" x1="674.703" y1="539.641" x2="815.251" y2="1357.1" gradientUnits="userSpaceOnUse">
<stop stop-color="#61D3FF"/>
<stop offset="1" stop-color="#02467C"/>
</linearGradient>
<clipPath id="clip0">
<rect width="245" height="285" fill="white" transform="translate(1247.28 168.135) rotate(6.9991)"/>
</clipPath>
</defs>
</svg>
